PathFileType	3	(X/Y/Z)	D:\minhoCalibration\240510\subject4_KPNP\preferred\preferred03.trc
DataRate	CameraRate	NumFrames	NumMarkers	Units	OrigDataRate	OrigDataStartFrame	OrigNumFrames
200.0	200.0	18	10	mm	200.0	233	87	
Frame#	Time	Left_Ankle_Outer1			Left_Ankle_Inner1			Left_Knee_Outer1			Left_Knee_Inner1			Left_Wrist1			Right_Wrist1			Right_Knee_Inner1			Right_Knee_Outer1			Right_Ankle_Inner1			Right_Ankle_Outer1			
		X1	Y1	Z1	X2	Y2	Z2	X3	Y3	Z3	X4	Y4	Z4	X5	Y5	Z5	X6	Y6	Z6	X7	Y7	Z7	X8	Y8	Z8	X9	Y9	Z9	X10	Y10	Z10	
233	1.155	-449.15131	1143.9131	238.15823	-413.84915	1043.6257	230.85498	-255.19312	1102.9916	722.7757	-276.03625	1015.629	695.48285	-420.87427	1208.9874	1075.5094	-366.23322	905.68646	1288.8849	-294.23215	532.43915	989.8302	-276.17697	541.40527	1099.6211	-526.08911	119.58569	1113.2759	-499.13797	130.96834	1163.0649
234	1.16	-458.06393	1131.822	238.89816	-418.10391	1032.437	229.53999	-256.53735	1108.7657	723.3349	-271.49493	1020.7143	696.66687	-426.8154	1207.8059	1072.2679	-363.96237	904.94763	1284.5469	-296.55606	532.315	984.97894	-277.00928	541.58392	1094.8351	-526.04962	119.68545	1114.1534	-498.02811	131.57239	1163.2089
235	1.165	-466.45651	1119.2894	240.0771	-422.16193	1023.8505	234.33176	-259.42596	1116.3502	722.70599	-267.04919	1025.1793	697.7417	-432.51883	1206.9841	1069.4778	-362.30426	904.15851	1279.9297	-299.57632	532.60266	979.96143	-277.64575	541.54865	1089.2456	-525.65186	119.77804	1115.2484	-496.96512	132.27808	1163.2593
236	1.17	-474.30118	1105.8997	241.42444	-426.11255	1012.2633	238.91321	-263.67413	1123.2246	721.27502	-262.86368	1029.6454	699.02649	-437.99536	1206.1534	1066.8674	-361.10782	903.27277	1274.7574	-302.93848	533.13806	974.76831	-278.237	542.20575	1083.7131	-525.51831	120.01718	1115.658	-496.00269	133.00783	1163.0084
237	1.175	-481.79523	1092.121	243.37904	-431.09171	999.86023	242.18993	-269.6889	1128.8578	719.37994	-258.39032	1034.2091	700.5025	-443.57187	1205.2914	1064.5255	-360.43222	902.36133	1269.0964	-306.11987	533.85211	969.27533	-278.62802	543.01562	1077.8879	-525.51672	120.39098	1115.835	-495.12289	133.63174	1162.4835
238	1.18	-489.29373	1077.1669	245.81862	-435.67899	986.78326	245.74879	-276.23895	1132.3912	717.19305	-253.93524	1038.9834	702.01697	-448.89725	1204.8337	1062.4404	-360.0079	901.4845	1262.8599	-309.94617	534.26715	964.05597	-278.89062	543.685	1071.9694	-525.50928	120.5069	1115.7014	-494.39917	134.25397	1161.9093
239	1.185	-496.72992	1061.2998	249.02786	-439.35306	973.20825	248.8163	-282.55972	1134.6046	715.06525	-249.39238	1043.7819	703.42181	-454.1781	1204.2955	1060.7322	-359.66675	900.46863	1256.3816	-313.53186	535.08594	958.93158	-279.0387	544.28729	1065.9762	-525.54663	120.77859	1115.3549	-493.80731	134.75795	1161.1818
240	1.19	-503.97903	1044.7878	252.79274	-442.39407	959.27271	252.29123	-288.73312	1135.7207	712.94946	-245.16043	1048.4701	704.80396	-459.37305	1204.3784	1059.2384	-359.14545	899.19464	1250.2418	-317.69354	535.4024	954.12885	-279.14978	544.59351	1060.0245	-525.65491	120.90304	1115.1847	-493.24536	135.20122	1160.3475
241	1.195	-511.53754	1026.7775	257.83643	-444.966	945.05157	255.95891	-294.58307	1135.8938	711.12061	-243.35014	1052.3667	705.94501	-463.83563	1203.6707	1058.0939	-358.15747	897.48596	1244.9611	-320.97739	535.8717	949.42114	-279.13239	544.66553	1054.1376	-525.63666	120.87872	1114.7853	-492.785	135.56714	1159.4697
242	1.2	-517.03113	1007.5551	262.22174	-448.10599	930.4165	259.66327	-300.21719	1135.155	709.461	-242.67291	1054.2987	707.23395	-467.75128	1203.0983	1057.3101	-356.97333	895.47949	1240.9263	-324.10953	536.28833	944.96759	-279.06812	544.68536	1048.3694	-525.74115	120.81645	1114.4598	-492.4162	135.77794	1158.6809
243	1.205	-523.65326	989.37164	267.81238	-450.25708	915.5592	263.99918	-305.05148	1133.5558	708.16022	-243.26883	1053.7094	708.42365	-471.66428	1202.2194	1056.6034	-355.38751	893.77209	1237.5975	-327.71579	536.48389	941.26569	-279.17764	544.50342	1042.9763	-525.82593	120.72594	1114.2772	-492.07712	135.87447	1158.0645
244	1.21	-529.78381	971.06342	273.77164	-453.58466	900.14954	268.88138	-309.88486	1131.2383	706.50751	-244.6653	1051.1039	709.70532	-475.32266	1200.9918	1055.7941	-353.28384	892.64716	1234.4821	-330.80215	536.31012	937.75812	-279.0614	544.26276	1038.2805	-525.91968	120.51743	1114.0577	-491.74323	135.93712	1157.5719
245	1.215	-534.92017	952.5387	279.06711	-457.15637	884.23792	274.33624	-312.26505	1128.2946	704.59283	-246.59326	1047.1023	710.87805	-478.50903	1199.6965	1054.9097	-350.90176	891.97247	1231.5431	-334.32153	535.83252	935.20178	-279.59979	543.92999	1033.7649	-525.84351	120.25982	1114.2904	-491.38879	135.86539	1157.4431
246	1.22	-541.06287	934.50684	285.69846	-461.74197	867.78009	281.2915	-314.57809	1124.7339	702.51306	-248.85376	1042.499	711.76251	-481.86865	1198.1158	1053.6923	-348.48981	891.69629	1228.8093	-336.59671	535.19629	932.23035	-280.07266	543.56366	1030.0316	-525.88318	119.85191	1115.1272	-491.00275	135.71931	1157.6646
247	1.225	-546.38678	916.35309	292.05756	-465.95575	850.80511	287.1611	-316.37509	1120.905	700.17944	-251.63997	1037.8866	712.28156	-484.92917	1196.2975	1052.1104	-345.91443	891.80475	1226.3033	-339.21649	534.28339	929.95251	-280.55765	543.12805	1026.98	-525.89038	119.28876	1116.0992	-490.5849	135.55083	1158.2439
248	1.23	-551.40247	897.8526	298.56662	-469.90198	833.68048	294.15967	-318.48254	1117.1307	697.88068	-254.33299	1033.5148	712.14825	-488.26031	1194.4346	1050.2346	-343.31995	892.26703	1223.8239	-341.03976	533.05939	928.26154	-281.5376	542.45844	1024.2097	-525.54926	119.08735	1117.1687	-489.92816	135.36975	1159.0564
249	1.235	-556.50568	878.75073	305.65408	-473.82632	816.12415	301.44067	-320.48029	1113.1863	695.52881	-257.03506	1029.3774	711.63586	-491.73834	1192.3958	1048.0702	-340.56235	892.9361	1221.3442	-342.39816	531.92981	926.54077	-282.26471	541.74689	1021.951	-525.38092	118.65726	1119.0758	-489.048	135.06369	1160.1807
250	1.24	-561.32513	858.92767	313.08279	-477.48468	798.40979	309.13931	-323.58997	1108.7096	693.35938	-259.72705	1025.332	710.81323	-494.42285	1189.1982	1045.8347	-337.92322	893.58105	1218.7258	-343.73303	530.1355	925.20703	-283.1116	540.78864	1020.09	-524.9743	118.42912	1120.7736	-488.05731	134.77637	1161.7067
